# Blender v2.78 (sub 0) OBJ File: ''
# www.blender.org
mtllib unicube.mtl
o Cube
v 0.500000 -0.500000 -0.500000
v 0.500000 -0.500000 0.500000
v -0.500000 -0.500000 0.500000
v -0.500000 -0.500000 -0.500000
v 0.500000 0.500000 -0.500000
v 0.500000 0.500000 0.500000
v -0.500000 0.500000 0.500000
v -0.500000 0.500000 -0.500000
vt 1.0000 0.0000
vt 1.0000 1.0000
vt -0.0000 1.0000
vt -0.0000 -0.0000
vt 1.0000 1.0000
vt 0.0000 1.0000
vt 0.0002 0.0002
vt 1.0000 -0.0000
vt -0.0000 1.0000
vt -0.0000 0.0000
vt 1.0000 -0.0000
vt 1.0000 1.0000
vt -0.0000 1.0000
vt 0.0000 -0.0000
vt 0.0000 -0.0000
vt 0.9998 0.0002
vt 1.0000 1.0000
vt 1.0000 0.0000
vt 1.0000 1.0000
vt 0.0002 0.9998
vt -0.0000 -0.0000
vn 0.0000 -1.0000 0.0000
vn 0.0000 1.0000 0.0000
vn 1.0000 0.0000 0.0000
vn -0.0000 -0.0000 1.0000
vn -1.0000 -0.0000 -0.0000
vn 0.0000 0.0000 -1.0000
usemtl Material
s off
f 1/1/1 2/2/1 3/3/1 4/4/1
f 5/5/2 8/6/2 7/7/2 6/8/2
f 1/1/3 5/5/3 6/9/3 2/10/3
f 2/11/4 6/12/4 7/13/4 3/14/4
f 3/3/5 7/15/5 8/16/5 4/17/5
f 5/18/6 1/19/6 4/20/6 8/21/6
